<mxfile host="app.diagrams.net" agent="Mozilla/5.0 (Windows NT 10.0; Win64; x64) AppleWebKit/537.36 (KHTML, like Gecko) Chrome/136.0.0.0 Safari/537.36" version="27.0.3">
  <diagram name="Page-1" id="LbRAlUhxZluUhq6Q0VyD">
    <mxGraphModel dx="2316" dy="1171" grid="1" gridSize="10" guides="1" tooltips="1" connect="1" arrows="1" fold="1" page="1" pageScale="1" pageWidth="1100" pageHeight="850" math="0" shadow="0">
      <root>
        <mxCell id="0" />
        <mxCell id="1" parent="0" />
        <mxCell id="33oIV33uSGPTsVMUiq6S-16" value="Region" style="points=[[0,0],[0.25,0],[0.5,0],[0.75,0],[1,0],[1,0.25],[1,0.5],[1,0.75],[1,1],[0.75,1],[0.5,1],[0.25,1],[0,1],[0,0.75],[0,0.5],[0,0.25]];outlineConnect=0;gradientColor=none;html=1;whiteSpace=wrap;fontSize=12;fontStyle=0;container=1;pointerEvents=0;collapsible=0;recursiveResize=0;shape=mxgraph.aws4.group;grIcon=mxgraph.aws4.group_region;strokeColor=#00A4A6;fillColor=none;verticalAlign=top;align=left;spacingLeft=30;fontColor=#147EBA;dashed=1;" vertex="1" parent="1">
          <mxGeometry x="190" y="160" width="1050" height="610" as="geometry" />
        </mxCell>
        <mxCell id="33oIV33uSGPTsVMUiq6S-102" value="" style="edgeStyle=orthogonalEdgeStyle;rounded=0;orthogonalLoop=1;jettySize=auto;html=1;" edge="1" parent="33oIV33uSGPTsVMUiq6S-16" source="33oIV33uSGPTsVMUiq6S-18" target="33oIV33uSGPTsVMUiq6S-20">
          <mxGeometry relative="1" as="geometry" />
        </mxCell>
        <mxCell id="33oIV33uSGPTsVMUiq6S-18" value="" style="outlineConnect=0;dashed=0;verticalLabelPosition=bottom;verticalAlign=top;align=center;html=1;shape=mxgraph.aws3.codepipeline;fillColor=#759C3E;gradientColor=none;" vertex="1" parent="33oIV33uSGPTsVMUiq6S-16">
          <mxGeometry x="93.75" y="449" width="60" height="71" as="geometry" />
        </mxCell>
        <mxCell id="33oIV33uSGPTsVMUiq6S-19" value="AWS Code&lt;div&gt;&amp;nbsp;Pipeline&lt;/div&gt;" style="text;html=1;align=center;verticalAlign=middle;resizable=0;points=[];autosize=1;strokeColor=none;fillColor=none;" vertex="1" parent="33oIV33uSGPTsVMUiq6S-16">
          <mxGeometry x="83.75" y="526" width="80" height="40" as="geometry" />
        </mxCell>
        <mxCell id="33oIV33uSGPTsVMUiq6S-105" value="" style="edgeStyle=orthogonalEdgeStyle;rounded=0;orthogonalLoop=1;jettySize=auto;html=1;" edge="1" parent="33oIV33uSGPTsVMUiq6S-16" source="33oIV33uSGPTsVMUiq6S-20" target="33oIV33uSGPTsVMUiq6S-22">
          <mxGeometry relative="1" as="geometry" />
        </mxCell>
        <mxCell id="33oIV33uSGPTsVMUiq6S-20" value="" style="outlineConnect=0;dashed=0;verticalLabelPosition=bottom;verticalAlign=top;align=center;html=1;shape=mxgraph.aws3.codebuild;fillColor=#759C3E;gradientColor=none;" vertex="1" parent="33oIV33uSGPTsVMUiq6S-16">
          <mxGeometry x="220" y="449" width="70" height="83" as="geometry" />
        </mxCell>
        <mxCell id="33oIV33uSGPTsVMUiq6S-21" value="AWS Code&lt;div&gt;&amp;nbsp;Build&lt;/div&gt;" style="text;html=1;align=center;verticalAlign=middle;resizable=0;points=[];autosize=1;strokeColor=none;fillColor=none;" vertex="1" parent="33oIV33uSGPTsVMUiq6S-16">
          <mxGeometry x="215" y="532" width="80" height="40" as="geometry" />
        </mxCell>
        <mxCell id="33oIV33uSGPTsVMUiq6S-22" value="" style="outlineConnect=0;dashed=0;verticalLabelPosition=bottom;verticalAlign=top;align=center;html=1;shape=mxgraph.aws3.codedeploy;fillColor=#759C3E;gradientColor=none;" vertex="1" parent="33oIV33uSGPTsVMUiq6S-16">
          <mxGeometry x="370" y="450" width="60" height="76" as="geometry" />
        </mxCell>
        <mxCell id="33oIV33uSGPTsVMUiq6S-23" value="AWS Code&lt;div&gt;Deploy&lt;/div&gt;" style="text;html=1;align=center;verticalAlign=middle;resizable=0;points=[];autosize=1;strokeColor=none;fillColor=none;" vertex="1" parent="33oIV33uSGPTsVMUiq6S-16">
          <mxGeometry x="360" y="526" width="80" height="40" as="geometry" />
        </mxCell>
        <mxCell id="33oIV33uSGPTsVMUiq6S-67" value="" style="sketch=0;outlineConnect=0;fontColor=#232F3E;gradientColor=none;fillColor=#7AA116;strokeColor=none;dashed=0;verticalLabelPosition=bottom;verticalAlign=top;align=center;html=1;fontSize=12;fontStyle=0;aspect=fixed;pointerEvents=1;shape=mxgraph.aws4.bucket_with_objects;" vertex="1" parent="33oIV33uSGPTsVMUiq6S-16">
          <mxGeometry x="700" y="470" width="75" height="78" as="geometry" />
        </mxCell>
        <mxCell id="33oIV33uSGPTsVMUiq6S-69" value="Bucket with&lt;div&gt;&amp;nbsp;objects&lt;/div&gt;" style="text;html=1;align=center;verticalAlign=middle;resizable=0;points=[];autosize=1;strokeColor=none;fillColor=none;" vertex="1" parent="33oIV33uSGPTsVMUiq6S-16">
          <mxGeometry x="697.5" y="546" width="80" height="40" as="geometry" />
        </mxCell>
        <mxCell id="33oIV33uSGPTsVMUiq6S-70" value="" style="sketch=0;outlineConnect=0;fontColor=#232F3E;gradientColor=none;fillColor=#E7157B;strokeColor=none;dashed=0;verticalLabelPosition=bottom;verticalAlign=top;align=center;html=1;fontSize=12;fontStyle=0;aspect=fixed;pointerEvents=1;shape=mxgraph.aws4.cloudwatch_logs;" vertex="1" parent="33oIV33uSGPTsVMUiq6S-16">
          <mxGeometry x="830" y="468" width="78" height="58" as="geometry" />
        </mxCell>
        <mxCell id="33oIV33uSGPTsVMUiq6S-71" value="Cloud Watch&amp;nbsp;&lt;div&gt;logs&lt;/div&gt;" style="text;html=1;align=center;verticalAlign=middle;resizable=0;points=[];autosize=1;strokeColor=none;fillColor=none;" vertex="1" parent="33oIV33uSGPTsVMUiq6S-16">
          <mxGeometry x="819" y="532" width="100" height="40" as="geometry" />
        </mxCell>
        <mxCell id="33oIV33uSGPTsVMUiq6S-72" value="" style="outlineConnect=0;dashed=0;verticalLabelPosition=bottom;verticalAlign=top;align=center;html=1;shape=mxgraph.aws3.alarm;fillColor=#759C3E;gradientColor=none;" vertex="1" parent="33oIV33uSGPTsVMUiq6S-16">
          <mxGeometry x="950" y="449" width="54" height="66" as="geometry" />
        </mxCell>
        <mxCell id="33oIV33uSGPTsVMUiq6S-73" value="ALARM" style="text;html=1;align=center;verticalAlign=middle;resizable=0;points=[];autosize=1;strokeColor=none;fillColor=none;" vertex="1" parent="33oIV33uSGPTsVMUiq6S-16">
          <mxGeometry x="950" y="516" width="60" height="30" as="geometry" />
        </mxCell>
        <mxCell id="33oIV33uSGPTsVMUiq6S-76" value="" style="edgeStyle=orthogonalEdgeStyle;rounded=0;orthogonalLoop=1;jettySize=auto;html=1;entryX=0;entryY=0.25;entryDx=0;entryDy=0;" edge="1" parent="1" source="33oIV33uSGPTsVMUiq6S-3" target="33oIV33uSGPTsVMUiq6S-52">
          <mxGeometry relative="1" as="geometry" />
        </mxCell>
        <mxCell id="33oIV33uSGPTsVMUiq6S-3" value="" style="verticalLabelPosition=bottom;html=1;verticalAlign=top;align=center;strokeColor=none;fillColor=#00BEF2;shape=mxgraph.azure.user;" vertex="1" parent="1">
          <mxGeometry x="54" y="256" width="47.5" height="50" as="geometry" />
        </mxCell>
        <mxCell id="33oIV33uSGPTsVMUiq6S-4" value="AWS Devops Engineer" style="text;html=1;align=center;verticalAlign=middle;resizable=0;points=[];autosize=1;strokeColor=none;fillColor=none;perimeterSpacing=1;" vertex="1" parent="1">
          <mxGeometry x="10" y="310" width="150" height="30" as="geometry" />
        </mxCell>
        <mxCell id="33oIV33uSGPTsVMUiq6S-5" value="" style="shape=mxgraph.cisco.people.androgenous_person;html=1;pointerEvents=1;dashed=0;fillColor=#036897;strokeColor=#ffffff;strokeWidth=2;verticalLabelPosition=bottom;verticalAlign=top;align=center;outlineConnect=0;" vertex="1" parent="1">
          <mxGeometry x="49.25" y="410" width="69" height="82" as="geometry" />
        </mxCell>
        <mxCell id="33oIV33uSGPTsVMUiq6S-91" value="" style="edgeStyle=orthogonalEdgeStyle;rounded=0;orthogonalLoop=1;jettySize=auto;html=1;entryX=0.5;entryY=0;entryDx=0;entryDy=0;entryPerimeter=0;" edge="1" parent="1" source="33oIV33uSGPTsVMUiq6S-6" target="33oIV33uSGPTsVMUiq6S-7">
          <mxGeometry relative="1" as="geometry">
            <mxPoint x="83" y="603" as="targetPoint" />
          </mxGeometry>
        </mxCell>
        <mxCell id="33oIV33uSGPTsVMUiq6S-6" value="&lt;font size=&quot;1&quot;&gt;CODE developer&lt;/font&gt;" style="text;html=1;align=center;verticalAlign=middle;resizable=0;points=[];autosize=1;strokeColor=none;fillColor=none;" vertex="1" parent="1">
          <mxGeometry x="33" y="493" width="100" height="30" as="geometry" />
        </mxCell>
        <mxCell id="33oIV33uSGPTsVMUiq6S-92" value="" style="edgeStyle=orthogonalEdgeStyle;rounded=0;orthogonalLoop=1;jettySize=auto;html=1;" edge="1" parent="1" source="33oIV33uSGPTsVMUiq6S-7">
          <mxGeometry relative="1" as="geometry">
            <mxPoint x="150" y="550" as="targetPoint" />
            <Array as="points">
              <mxPoint x="130" y="695" />
              <mxPoint x="130" y="590" />
              <mxPoint x="120" y="590" />
              <mxPoint x="120" y="550" />
              <mxPoint x="140" y="550" />
            </Array>
          </mxGeometry>
        </mxCell>
        <mxCell id="33oIV33uSGPTsVMUiq6S-7" value="" style="verticalLabelPosition=bottom;html=1;verticalAlign=top;align=center;strokeColor=none;fillColor=#00BEF2;shape=mxgraph.azure.github_code;pointerEvents=1;" vertex="1" parent="1">
          <mxGeometry x="60" y="670" width="50" height="50" as="geometry" />
        </mxCell>
        <mxCell id="33oIV33uSGPTsVMUiq6S-8" value="GITHUB" style="text;html=1;align=center;verticalAlign=middle;resizable=0;points=[];autosize=1;strokeColor=none;fillColor=none;" vertex="1" parent="1">
          <mxGeometry x="50" y="720" width="70" height="30" as="geometry" />
        </mxCell>
        <mxCell id="33oIV33uSGPTsVMUiq6S-14" value="AWS Cloud" style="points=[[0,0],[0.25,0],[0.5,0],[0.75,0],[1,0],[1,0.25],[1,0.5],[1,0.75],[1,1],[0.75,1],[0.5,1],[0.25,1],[0,1],[0,0.75],[0,0.5],[0,0.25]];outlineConnect=0;gradientColor=none;html=1;whiteSpace=wrap;fontSize=12;fontStyle=0;container=1;pointerEvents=0;collapsible=0;recursiveResize=0;shape=mxgraph.aws4.group;grIcon=mxgraph.aws4.group_aws_cloud_alt;strokeColor=#232F3E;fillColor=none;verticalAlign=top;align=left;spacingLeft=30;fontColor=#232F3E;dashed=0;" vertex="1" parent="1">
          <mxGeometry x="160" y="110" width="1180" height="680" as="geometry" />
        </mxCell>
        <mxCell id="33oIV33uSGPTsVMUiq6S-25" value="" style="sketch=0;points=[[0,0,0],[0.25,0,0],[0.5,0,0],[0.75,0,0],[1,0,0],[0,1,0],[0.25,1,0],[0.5,1,0],[0.75,1,0],[1,1,0],[0,0.25,0],[0,0.5,0],[0,0.75,0],[1,0.25,0],[1,0.5,0],[1,0.75,0]];outlineConnect=0;fontColor=#232F3E;fillColor=#DD344C;strokeColor=#ffffff;dashed=0;verticalLabelPosition=bottom;verticalAlign=top;align=center;html=1;fontSize=12;fontStyle=0;aspect=fixed;shape=mxgraph.aws4.resourceIcon;resIcon=mxgraph.aws4.audit_manager;" vertex="1" parent="33oIV33uSGPTsVMUiq6S-14">
          <mxGeometry x="-20" y="360" width="78" height="78" as="geometry" />
        </mxCell>
        <mxCell id="33oIV33uSGPTsVMUiq6S-59" value="" style="outlineConnect=0;dashed=0;verticalLabelPosition=bottom;verticalAlign=top;align=center;html=1;shape=mxgraph.aws3.classic_load_balancer;fillColor=#F58534;gradientColor=none;aspect=fixed;" vertex="1" parent="33oIV33uSGPTsVMUiq6S-14">
          <mxGeometry x="1085" y="291" width="100" height="102" as="geometry" />
        </mxCell>
        <mxCell id="33oIV33uSGPTsVMUiq6S-60" value="" style="outlineConnect=0;dashed=0;verticalLabelPosition=bottom;verticalAlign=top;align=center;html=1;shape=mxgraph.aws3.certificate_manager_2;fillColor=#759C3E;gradientColor=none;" vertex="1" parent="33oIV33uSGPTsVMUiq6S-14">
          <mxGeometry x="1080" y="166" width="110" height="80" as="geometry" />
        </mxCell>
        <mxCell id="33oIV33uSGPTsVMUiq6S-61" value="Load Balancer" style="text;html=1;align=center;verticalAlign=middle;resizable=0;points=[];autosize=1;strokeColor=none;fillColor=none;" vertex="1" parent="33oIV33uSGPTsVMUiq6S-14">
          <mxGeometry x="1090" y="393" width="100" height="30" as="geometry" />
        </mxCell>
        <mxCell id="33oIV33uSGPTsVMUiq6S-62" value="AWS Cirtificate manager" style="text;html=1;align=center;verticalAlign=middle;resizable=0;points=[];autosize=1;strokeColor=none;fillColor=none;" vertex="1" parent="33oIV33uSGPTsVMUiq6S-14">
          <mxGeometry x="1065" y="240" width="150" height="30" as="geometry" />
        </mxCell>
        <mxCell id="33oIV33uSGPTsVMUiq6S-99" value="" style="line;strokeWidth=1;rotatable=0;dashed=0;labelPosition=right;align=left;verticalAlign=middle;spacingTop=0;spacingLeft=6;points=[];portConstraint=eastwest;" vertex="1" parent="33oIV33uSGPTsVMUiq6S-14">
          <mxGeometry x="58" y="540" width="60" height="10" as="geometry" />
        </mxCell>
        <mxCell id="33oIV33uSGPTsVMUiq6S-131" value="" style="endArrow=classic;html=1;rounded=0;" edge="1" parent="33oIV33uSGPTsVMUiq6S-14">
          <mxGeometry relative="1" as="geometry">
            <mxPoint x="190" y="630" as="sourcePoint" />
            <mxPoint x="340" y="630" as="targetPoint" />
          </mxGeometry>
        </mxCell>
        <mxCell id="33oIV33uSGPTsVMUiq6S-132" value="Label" style="edgeLabel;resizable=0;html=1;;align=center;verticalAlign=middle;" connectable="0" vertex="1" parent="33oIV33uSGPTsVMUiq6S-131">
          <mxGeometry relative="1" as="geometry" />
        </mxCell>
        <mxCell id="33oIV33uSGPTsVMUiq6S-135" value="CICD PIPELINE" style="edgeLabel;html=1;align=center;verticalAlign=middle;resizable=0;points=[];" vertex="1" connectable="0" parent="33oIV33uSGPTsVMUiq6S-131">
          <mxGeometry x="0.0111" y="3" relative="1" as="geometry">
            <mxPoint x="-1" as="offset" />
          </mxGeometry>
        </mxCell>
        <mxCell id="33oIV33uSGPTsVMUiq6S-17" value="VPC" style="shape=mxgraph.ibm.box;prType=vpc;fontStyle=0;verticalAlign=top;align=left;spacingLeft=32;spacingTop=4;fillColor=none;rounded=0;whiteSpace=wrap;html=1;strokeColor=#4376BB;strokeWidth=2;dashed=0;container=1;spacing=-4;collapsible=0;expand=0;recursiveResize=0;" vertex="1" parent="1">
          <mxGeometry x="240" y="200" width="940" height="400" as="geometry" />
        </mxCell>
        <mxCell id="33oIV33uSGPTsVMUiq6S-26" value="Availability Zone" style="fillColor=none;strokeColor=#147EBA;dashed=1;verticalAlign=top;fontStyle=0;fontColor=#147EBA;whiteSpace=wrap;html=1;" vertex="1" parent="33oIV33uSGPTsVMUiq6S-17">
          <mxGeometry x="15" y="40" width="175" height="220" as="geometry" />
        </mxCell>
        <mxCell id="33oIV33uSGPTsVMUiq6S-30" value="" style="rounded=0;whiteSpace=wrap;html=1;" vertex="1" parent="33oIV33uSGPTsVMUiq6S-17">
          <mxGeometry x="460" y="20" width="460" height="350" as="geometry" />
        </mxCell>
        <mxCell id="33oIV33uSGPTsVMUiq6S-31" value="ECS CLUSTER CONTAINER" style="text;html=1;align=center;verticalAlign=middle;resizable=0;points=[];autosize=1;strokeColor=none;fillColor=none;" vertex="1" parent="33oIV33uSGPTsVMUiq6S-17">
          <mxGeometry x="501" y="19" width="180" height="30" as="geometry" />
        </mxCell>
        <mxCell id="33oIV33uSGPTsVMUiq6S-32" value="" style="rounded=0;whiteSpace=wrap;html=1;" vertex="1" parent="33oIV33uSGPTsVMUiq6S-17">
          <mxGeometry x="570" y="60" width="330" height="280" as="geometry" />
        </mxCell>
        <mxCell id="33oIV33uSGPTsVMUiq6S-33" value="ECS Service" style="text;html=1;align=center;verticalAlign=middle;resizable=0;points=[];autosize=1;strokeColor=none;fillColor=none;" vertex="1" parent="33oIV33uSGPTsVMUiq6S-17">
          <mxGeometry x="580" y="60" width="90" height="30" as="geometry" />
        </mxCell>
        <mxCell id="33oIV33uSGPTsVMUiq6S-35" value="" style="rounded=0;whiteSpace=wrap;html=1;" vertex="1" parent="33oIV33uSGPTsVMUiq6S-17">
          <mxGeometry x="635" y="90" width="245" height="220" as="geometry" />
        </mxCell>
        <mxCell id="33oIV33uSGPTsVMUiq6S-36" value="" style="sketch=0;points=[[0,0,0],[0.25,0,0],[0.5,0,0],[0.75,0,0],[1,0,0],[0,1,0],[0.25,1,0],[0.5,1,0],[0.75,1,0],[1,1,0],[0,0.25,0],[0,0.5,0],[0,0.75,0],[1,0.25,0],[1,0.5,0],[1,0.75,0]];outlineConnect=0;fontColor=#232F3E;fillColor=#ED7100;strokeColor=#ffffff;dashed=0;verticalLabelPosition=bottom;verticalAlign=top;align=center;html=1;fontSize=12;fontStyle=0;aspect=fixed;shape=mxgraph.aws4.resourceIcon;resIcon=mxgraph.aws4.ecs;" vertex="1" parent="33oIV33uSGPTsVMUiq6S-17">
          <mxGeometry x="461" y="20" width="30" height="30" as="geometry" />
        </mxCell>
        <mxCell id="33oIV33uSGPTsVMUiq6S-40" value="" style="sketch=0;points=[[0,0,0],[0.25,0,0],[0.5,0,0],[0.75,0,0],[1,0,0],[0,1,0],[0.25,1,0],[0.5,1,0],[0.75,1,0],[1,1,0],[0,0.25,0],[0,0.5,0],[0,0.75,0],[1,0.25,0],[1,0.5,0],[1,0.75,0]];outlineConnect=0;fontColor=#232F3E;fillColor=#ED7100;strokeColor=#ffffff;dashed=0;verticalLabelPosition=bottom;verticalAlign=top;align=center;html=1;fontSize=12;fontStyle=0;aspect=fixed;shape=mxgraph.aws4.resourceIcon;resIcon=mxgraph.aws4.fargate;" vertex="1" parent="33oIV33uSGPTsVMUiq6S-17">
          <mxGeometry x="635" y="90" width="20" height="20" as="geometry" />
        </mxCell>
        <mxCell id="33oIV33uSGPTsVMUiq6S-41" value="ECS&amp;nbsp;&lt;span style=&quot;background-color: transparent; color: light-dark(rgb(0, 0, 0), rgb(255, 255, 255));&quot;&gt;Fargate Container&lt;/span&gt;" style="text;html=1;align=center;verticalAlign=middle;resizable=0;points=[];autosize=1;strokeColor=none;fillColor=none;" vertex="1" parent="33oIV33uSGPTsVMUiq6S-17">
          <mxGeometry x="644" y="85" width="150" height="30" as="geometry" />
        </mxCell>
        <mxCell id="33oIV33uSGPTsVMUiq6S-43" value="" style="outlineConnect=0;dashed=0;verticalLabelPosition=bottom;verticalAlign=top;align=center;html=1;shape=mxgraph.aws3.ecr_registry;fillColor=#F58534;gradientColor=none;" vertex="1" parent="33oIV33uSGPTsVMUiq6S-17">
          <mxGeometry x="274" y="140" width="56" height="60" as="geometry" />
        </mxCell>
        <mxCell id="33oIV33uSGPTsVMUiq6S-47" value="" style="edgeStyle=orthogonalEdgeStyle;rounded=0;orthogonalLoop=1;jettySize=auto;html=1;" edge="1" parent="33oIV33uSGPTsVMUiq6S-17" source="33oIV33uSGPTsVMUiq6S-44">
          <mxGeometry relative="1" as="geometry">
            <mxPoint x="564" y="164" as="targetPoint" />
          </mxGeometry>
        </mxCell>
        <mxCell id="33oIV33uSGPTsVMUiq6S-44" value="" style="sketch=0;outlineConnect=0;fontColor=#232F3E;gradientColor=none;fillColor=#ED7100;strokeColor=none;dashed=0;verticalLabelPosition=bottom;verticalAlign=top;align=center;html=1;fontSize=12;fontStyle=0;aspect=fixed;pointerEvents=1;shape=mxgraph.aws4.ecs_task;" vertex="1" parent="33oIV33uSGPTsVMUiq6S-17">
          <mxGeometry x="491" y="140" width="37" height="48" as="geometry" />
        </mxCell>
        <mxCell id="33oIV33uSGPTsVMUiq6S-45" value="ECR registry" style="text;html=1;align=center;verticalAlign=middle;resizable=0;points=[];autosize=1;strokeColor=none;fillColor=none;" vertex="1" parent="33oIV33uSGPTsVMUiq6S-17">
          <mxGeometry x="257.5" y="200" width="90" height="30" as="geometry" />
        </mxCell>
        <mxCell id="33oIV33uSGPTsVMUiq6S-46" value="TASK" style="text;html=1;align=center;verticalAlign=middle;resizable=0;points=[];autosize=1;strokeColor=none;fillColor=none;" vertex="1" parent="33oIV33uSGPTsVMUiq6S-17">
          <mxGeometry x="484.5" y="184" width="50" height="30" as="geometry" />
        </mxCell>
        <mxCell id="33oIV33uSGPTsVMUiq6S-49" value="" style="edgeStyle=orthogonalEdgeStyle;rounded=0;orthogonalLoop=1;jettySize=auto;html=1;" edge="1" parent="33oIV33uSGPTsVMUiq6S-17" source="33oIV33uSGPTsVMUiq6S-43" target="33oIV33uSGPTsVMUiq6S-44">
          <mxGeometry relative="1" as="geometry">
            <mxPoint x="424.5" y="170" as="targetPoint" />
          </mxGeometry>
        </mxCell>
        <mxCell id="33oIV33uSGPTsVMUiq6S-118" value="" style="edgeStyle=orthogonalEdgeStyle;rounded=0;orthogonalLoop=1;jettySize=auto;html=1;" edge="1" parent="33oIV33uSGPTsVMUiq6S-17" source="33oIV33uSGPTsVMUiq6S-52" target="33oIV33uSGPTsVMUiq6S-43">
          <mxGeometry relative="1" as="geometry" />
        </mxCell>
        <mxCell id="33oIV33uSGPTsVMUiq6S-52" value="" style="rounded=1;arcSize=10;dashed=0;fillColor=none;gradientColor=none;strokeWidth=2;" vertex="1" parent="33oIV33uSGPTsVMUiq6S-17">
          <mxGeometry x="32" y="74" width="141" height="164" as="geometry" />
        </mxCell>
        <mxCell id="33oIV33uSGPTsVMUiq6S-53" value="" style="dashed=0;html=1;shape=mxgraph.aws3.instance;fillColor=#F58536;gradientColor=none;dashed=0;" vertex="1" parent="33oIV33uSGPTsVMUiq6S-17">
          <mxGeometry x="32" y="74" width="40" height="41" as="geometry" />
        </mxCell>
        <mxCell id="33oIV33uSGPTsVMUiq6S-56" value="" style="verticalLabelPosition=bottom;html=1;verticalAlign=top;align=center;strokeColor=none;fillColor=#00BEF2;shape=mxgraph.azure.git_repository;" vertex="1" parent="33oIV33uSGPTsVMUiq6S-17">
          <mxGeometry x="77.5" y="110" width="42.5" height="40" as="geometry" />
        </mxCell>
        <mxCell id="33oIV33uSGPTsVMUiq6S-57" value="" style="image;sketch=0;aspect=fixed;html=1;points=[];align=center;fontSize=12;image=img/lib/mscae/Docker.svg;" vertex="1" parent="33oIV33uSGPTsVMUiq6S-17">
          <mxGeometry x="77.5" y="188" width="50" height="41" as="geometry" />
        </mxCell>
        <mxCell id="33oIV33uSGPTsVMUiq6S-58" value="GIT" style="text;html=1;align=center;verticalAlign=middle;resizable=0;points=[];autosize=1;strokeColor=none;fillColor=none;" vertex="1" parent="33oIV33uSGPTsVMUiq6S-17">
          <mxGeometry x="110" y="115" width="40" height="30" as="geometry" />
        </mxCell>
        <mxCell id="33oIV33uSGPTsVMUiq6S-119" value="" style="html=1;verticalLabelPosition=bottom;align=center;labelBackgroundColor=#ffffff;verticalAlign=top;strokeWidth=2;strokeColor=#0080F0;shadow=0;dashed=0;shape=mxgraph.ios7.icons.box;" vertex="1" parent="33oIV33uSGPTsVMUiq6S-17">
          <mxGeometry x="675" y="135" width="30" height="30" as="geometry" />
        </mxCell>
        <mxCell id="33oIV33uSGPTsVMUiq6S-122" value="" style="html=1;verticalLabelPosition=bottom;align=center;labelBackgroundColor=#ffffff;verticalAlign=top;strokeWidth=2;strokeColor=#0080F0;shadow=0;dashed=0;shape=mxgraph.ios7.icons.box;" vertex="1" parent="33oIV33uSGPTsVMUiq6S-17">
          <mxGeometry x="790" y="135" width="30" height="30" as="geometry" />
        </mxCell>
        <mxCell id="33oIV33uSGPTsVMUiq6S-121" value="" style="html=1;verticalLabelPosition=bottom;align=center;labelBackgroundColor=#ffffff;verticalAlign=top;strokeWidth=2;strokeColor=#0080F0;shadow=0;dashed=0;shape=mxgraph.ios7.icons.box;" vertex="1" parent="33oIV33uSGPTsVMUiq6S-17">
          <mxGeometry x="677" y="230" width="30" height="30" as="geometry" />
        </mxCell>
        <mxCell id="33oIV33uSGPTsVMUiq6S-120" value="" style="html=1;verticalLabelPosition=bottom;align=center;labelBackgroundColor=#ffffff;verticalAlign=top;strokeWidth=2;strokeColor=#0080F0;shadow=0;dashed=0;shape=mxgraph.ios7.icons.box;" vertex="1" parent="33oIV33uSGPTsVMUiq6S-17">
          <mxGeometry x="794" y="230" width="30" height="30" as="geometry" />
        </mxCell>
        <mxCell id="33oIV33uSGPTsVMUiq6S-123" value="FARGATE&amp;nbsp;&lt;div&gt;TASK&lt;/div&gt;" style="text;html=1;align=center;verticalAlign=middle;resizable=0;points=[];autosize=1;strokeColor=none;fillColor=none;" vertex="1" parent="33oIV33uSGPTsVMUiq6S-17">
          <mxGeometry x="652" y="160" width="80" height="40" as="geometry" />
        </mxCell>
        <mxCell id="33oIV33uSGPTsVMUiq6S-125" value="FARGATE&amp;nbsp;&lt;div&gt;TASK&lt;/div&gt;" style="text;html=1;align=center;verticalAlign=middle;resizable=0;points=[];autosize=1;strokeColor=none;fillColor=none;" vertex="1" parent="33oIV33uSGPTsVMUiq6S-17">
          <mxGeometry x="655" y="260" width="80" height="40" as="geometry" />
        </mxCell>
        <mxCell id="33oIV33uSGPTsVMUiq6S-126" value="FARGATE&amp;nbsp;&lt;div&gt;TASK&lt;/div&gt;" style="text;html=1;align=center;verticalAlign=middle;resizable=0;points=[];autosize=1;strokeColor=none;fillColor=none;" vertex="1" parent="33oIV33uSGPTsVMUiq6S-17">
          <mxGeometry x="769" y="260" width="80" height="40" as="geometry" />
        </mxCell>
        <mxCell id="33oIV33uSGPTsVMUiq6S-127" value="" style="edgeStyle=none;orthogonalLoop=1;jettySize=auto;html=1;rounded=0;" edge="1" parent="33oIV33uSGPTsVMUiq6S-17" target="33oIV33uSGPTsVMUiq6S-59">
          <mxGeometry width="100" relative="1" as="geometry">
            <mxPoint x="880" y="228.95" as="sourcePoint" />
            <mxPoint x="980" y="228.95" as="targetPoint" />
            <Array as="points" />
          </mxGeometry>
        </mxCell>
        <mxCell id="33oIV33uSGPTsVMUiq6S-63" value="" style="image;aspect=fixed;perimeter=ellipsePerimeter;html=1;align=center;shadow=0;dashed=0;spacingTop=3;image=img/lib/active_directory/users.svg;" vertex="1" parent="1">
          <mxGeometry x="1480" y="299.7" width="53" height="80.3" as="geometry" />
        </mxCell>
        <mxCell id="33oIV33uSGPTsVMUiq6S-128" value="" style="edgeStyle=orthogonalEdgeStyle;rounded=0;orthogonalLoop=1;jettySize=auto;html=1;" edge="1" parent="1" source="33oIV33uSGPTsVMUiq6S-64" target="33oIV33uSGPTsVMUiq6S-14">
          <mxGeometry relative="1" as="geometry" />
        </mxCell>
        <mxCell id="33oIV33uSGPTsVMUiq6S-64" value="" style="image;aspect=fixed;perimeter=ellipsePerimeter;html=1;align=center;shadow=0;dashed=0;spacingTop=3;image=img/lib/active_directory/users.svg;" vertex="1" parent="1">
          <mxGeometry x="1480" y="340" width="46.2" height="70" as="geometry" />
        </mxCell>
        <mxCell id="33oIV33uSGPTsVMUiq6S-65" value="CLINTS/ USERS" style="text;html=1;align=center;verticalAlign=middle;resizable=0;points=[];autosize=1;strokeColor=none;fillColor=none;" vertex="1" parent="1">
          <mxGeometry x="1451.5" y="410" width="110" height="30" as="geometry" />
        </mxCell>
        <mxCell id="33oIV33uSGPTsVMUiq6S-66" value="CICD PIPELINE ARCHITECTURE" style="text;html=1;align=center;verticalAlign=middle;resizable=0;points=[];autosize=1;strokeColor=#6c8ebf;fillColor=#dae8fc;fontSize=31;fontStyle=1" vertex="1" parent="1">
          <mxGeometry x="500" y="40" width="500" height="50" as="geometry" />
        </mxCell>
        <mxCell id="33oIV33uSGPTsVMUiq6S-85" value="" style="edgeStyle=orthogonalEdgeStyle;rounded=0;orthogonalLoop=1;jettySize=auto;html=1;" edge="1" parent="1" source="33oIV33uSGPTsVMUiq6S-25" target="33oIV33uSGPTsVMUiq6S-26">
          <mxGeometry relative="1" as="geometry">
            <mxPoint x="179.0000000000001" y="391.0000000000001" as="targetPoint" />
            <Array as="points">
              <mxPoint x="179" y="436" />
              <mxPoint x="180" y="436" />
              <mxPoint x="180" y="391" />
            </Array>
          </mxGeometry>
        </mxCell>
        <mxCell id="33oIV33uSGPTsVMUiq6S-87" value="" style="edgeStyle=orthogonalEdgeStyle;rounded=0;orthogonalLoop=1;jettySize=auto;html=1;" edge="1" parent="1" source="33oIV33uSGPTsVMUiq6S-25" target="33oIV33uSGPTsVMUiq6S-20">
          <mxGeometry relative="1" as="geometry">
            <mxPoint x="296.9999999999998" y="518.9999999999998" as="targetPoint" />
          </mxGeometry>
        </mxCell>
        <mxCell id="33oIV33uSGPTsVMUiq6S-89" value="" style="edgeStyle=orthogonalEdgeStyle;rounded=0;orthogonalLoop=1;jettySize=auto;html=1;entryX=0.808;entryY=-0.048;entryDx=0;entryDy=0;entryPerimeter=0;" edge="1" parent="1" source="33oIV33uSGPTsVMUiq6S-25" target="33oIV33uSGPTsVMUiq6S-7">
          <mxGeometry relative="1" as="geometry">
            <mxPoint x="179" y="647" as="targetPoint" />
          </mxGeometry>
        </mxCell>
        <mxCell id="33oIV33uSGPTsVMUiq6S-101" value="" style="endArrow=none;html=1;rounded=0;entryX=0.048;entryY=0.616;entryDx=0;entryDy=0;entryPerimeter=0;" edge="1" parent="1" source="33oIV33uSGPTsVMUiq6S-16" target="33oIV33uSGPTsVMUiq6S-99">
          <mxGeometry relative="1" as="geometry">
            <mxPoint x="160" y="720" as="sourcePoint" />
            <mxPoint x="320" y="720" as="targetPoint" />
            <Array as="points">
              <mxPoint x="200" y="550" />
            </Array>
          </mxGeometry>
        </mxCell>
        <mxCell id="33oIV33uSGPTsVMUiq6S-107" value="" style="edgeStyle=orthogonalEdgeStyle;rounded=0;orthogonalLoop=1;jettySize=auto;html=1;" edge="1" parent="1" source="33oIV33uSGPTsVMUiq6S-22" target="33oIV33uSGPTsVMUiq6S-35">
          <mxGeometry relative="1" as="geometry">
            <mxPoint x="700" y="648" as="targetPoint" />
            <Array as="points">
              <mxPoint x="998" y="620" />
            </Array>
          </mxGeometry>
        </mxCell>
        <mxCell id="33oIV33uSGPTsVMUiq6S-115" value="" style="edgeStyle=none;orthogonalLoop=1;jettySize=auto;html=1;rounded=0;exitX=0.35;exitY=0.986;exitDx=0;exitDy=0;exitPerimeter=0;entryX=0.4;entryY=0;entryDx=0;entryDy=0;entryPerimeter=0;" edge="1" parent="1" source="33oIV33uSGPTsVMUiq6S-32" target="33oIV33uSGPTsVMUiq6S-67">
          <mxGeometry width="100" relative="1" as="geometry">
            <mxPoint x="720" y="860" as="sourcePoint" />
            <mxPoint x="820" y="860" as="targetPoint" />
            <Array as="points" />
          </mxGeometry>
        </mxCell>
        <mxCell id="33oIV33uSGPTsVMUiq6S-116" value="" style="edgeStyle=none;orthogonalLoop=1;jettySize=auto;html=1;rounded=0;exitX=0.75;exitY=1;exitDx=0;exitDy=0;" edge="1" parent="1" source="33oIV33uSGPTsVMUiq6S-32">
          <mxGeometry width="100" relative="1" as="geometry">
            <mxPoint x="960" y="860" as="sourcePoint" />
            <mxPoint x="1058" y="620" as="targetPoint" />
            <Array as="points" />
          </mxGeometry>
        </mxCell>
        <mxCell id="33oIV33uSGPTsVMUiq6S-117" value="" style="edgeStyle=none;orthogonalLoop=1;jettySize=auto;html=1;rounded=0;exitX=0.951;exitY=1.008;exitDx=0;exitDy=0;exitPerimeter=0;" edge="1" parent="1" source="33oIV33uSGPTsVMUiq6S-30" target="33oIV33uSGPTsVMUiq6S-72">
          <mxGeometry width="100" relative="1" as="geometry">
            <mxPoint x="1000" y="860" as="sourcePoint" />
            <mxPoint x="1100" y="860" as="targetPoint" />
            <Array as="points" />
          </mxGeometry>
        </mxCell>
        <mxCell id="33oIV33uSGPTsVMUiq6S-124" value="FARGATE&amp;nbsp;&lt;div&gt;TASK&lt;/div&gt;" style="text;html=1;align=center;verticalAlign=middle;resizable=0;points=[];autosize=1;strokeColor=none;fillColor=none;" vertex="1" parent="1">
          <mxGeometry x="1008" y="361" width="80" height="40" as="geometry" />
        </mxCell>
        <mxCell id="33oIV33uSGPTsVMUiq6S-137" value="" style="endArrow=none;html=1;rounded=0;" edge="1" parent="1">
          <mxGeometry relative="1" as="geometry">
            <mxPoint x="310" y="690" as="sourcePoint" />
            <mxPoint x="350" y="740" as="targetPoint" />
            <Array as="points">
              <mxPoint x="310" y="740" />
            </Array>
          </mxGeometry>
        </mxCell>
        <mxCell id="33oIV33uSGPTsVMUiq6S-142" value="" style="endArrow=none;html=1;rounded=0;" edge="1" parent="1" target="33oIV33uSGPTsVMUiq6S-23">
          <mxGeometry relative="1" as="geometry">
            <mxPoint x="490" y="740" as="sourcePoint" />
            <mxPoint x="470" y="690" as="targetPoint" />
            <Array as="points">
              <mxPoint x="580" y="740" />
            </Array>
          </mxGeometry>
        </mxCell>
      </root>
    </mxGraphModel>
  </diagram>
</mxfile>
